# xmcd
#
# Track frame offsets:
#	150
#	20724
#	38200
#	53583
#	70252
#	87801
#	105663
#	125046
#	144750
#	161924
#	178759
#	194911
#	211838
#	228815
#
# Disc length: 3201 seconds
#
# Revision: 3
# Processed by: cddbd v1.5.2PL0 Copyright (c) Steve Scherf et al.
# Submitted via: EZCDAudioConverter 3.1.7.1
#
DISCID=c40c7f0e
DTITLE=Colt Ford - Ride Through The Country
DYEAR=2008
DGENRE=Country 
TTITLE0=Ride Through The Country Featuring John Michael Montgomery
TTITLE1=Mr. GoodTime
TTITLE2=No Trash In My Trailer
TTITLE3=Cold Beer Featuring Jamey Johnson
TTITLE4=Never Thought Featuring Lindsey Hager
TTITLE5=Saddle Up
TTITLE6=Waffle House Featuring Sunny Ledfurd
TTITLE7=Twisted
TTITLE8=Tailgate
TTITLE9=Dirt Road Anthem Featuring Brantley Gilbert
TTITLE10=Good God O'Mighty
TTITLE11=Like Me
TTITLE12=Gangsta Of Love Featuring Bonecrusher
TTITLE13=I Can't Sing
EXTD=
EXTT0=
EXTT1=
EXTT2=
EXTT3=
EXTT4=
EXTT5=
EXTT6=
EXTT7=
EXTT8=
EXTT9=
EXTT10=
EXTT11=
EXTT12=
EXTT13=
PLAYORDER=
